Coordinates
version=1
nRows=43
nColumns=12
inDegrees=yes

Units are S.I. units (second, meters, Newtons, ...)
Angles are in degrees

endheader
time	SC_y	SC_z	SC_x	AC_y	AC_z	AC_x	GH_y	GH_z	GH_yy	EL_x	PS_y
       0.0               -17.7          29.01          39.14          37.68          1.748         -11.15          97.66          56.69          38.34          126.2          54.55
   0.03549               -17.7          29.01          39.14          37.68          1.748         -11.15          97.62          56.69          38.33          126.1          54.56
   0.07098               -17.7          29.01          39.14          37.67          1.749         -11.15          97.58          56.68          38.33          126.1          54.57
    0.1065               -17.7           29.0          39.14          37.67          1.749         -11.15          97.53          56.68          38.33          126.1          54.58
     0.142               -17.7           29.0          39.14          37.67          1.749         -11.15          97.49          56.68          38.32          126.1          54.59
    0.1774               -17.7           29.0          39.14          37.67          1.749         -11.15          97.43          56.67          38.32          126.1          54.61
    0.2129               -17.7           29.0          39.14          37.67          1.749         -11.15          97.38          56.67          38.31          126.1          54.62
    0.2484               -17.7           29.0          39.14          37.67          1.749         -11.15          97.32          56.67          38.31          126.1          54.64
    0.2839               -17.7          28.99          39.14          37.67          1.749         -11.15          97.26          56.66           38.3          126.1          54.65
    0.3194               -17.7          28.99          39.15          37.67          1.749         -11.15          97.19          56.66           38.3          126.1          54.67
    0.3549               -17.7          28.99          39.15          37.66          1.749         -11.15          97.12          56.65          38.29          126.1          54.69
    0.3904               -17.7          28.99          39.15          37.66           1.75         -11.15          97.04          56.65          38.28          126.1          54.71
    0.4259               -17.7          28.98          39.15          37.66           1.75         -11.15          96.96          56.64          38.28          126.1          54.73
    0.4614               -17.7          28.98          39.15          37.66           1.75         -11.16          96.87          56.64          38.27          126.0          54.76
    0.4969              -17.71          28.98          39.15          37.66           1.75         -11.16          96.77          56.63          38.26          126.0          54.78
    0.5323              -17.71          28.97          39.15          37.65           1.75         -11.16          96.66          56.62          38.25          126.0          54.81
    0.5678              -17.71          28.97          39.16          37.65           1.75         -11.16          96.55          56.62          38.24          126.0          54.84
    0.6033              -17.71          28.97          39.16          37.65          1.751         -11.16          96.42          56.61          38.23          126.0          54.88
    0.6388              -17.71          28.96          39.16          37.65          1.751         -11.16          96.28           56.6          38.22          126.0          54.91
    0.6743              -17.71          28.96          39.16          37.64          1.751         -11.16          96.13          56.59           38.2          125.9          54.95
    0.7098              -17.71          28.95          39.16          37.64          1.751         -11.17          95.97          56.58          38.19          125.9           55.0
    0.7453              -17.71          28.94          39.17          37.63          1.752         -11.17          95.79          56.56          38.17          125.9          55.04
    0.7808              -17.71          28.94          39.17          37.63          1.752         -11.17          95.59          56.55          38.16          125.9           55.1
    0.8163              -17.71          28.93          39.17          37.62          1.753         -11.17          95.36          56.54          38.14          125.8          55.16
    0.8518              -17.71          28.92          39.18          37.62          1.753         -11.18          95.12          56.52          38.12          125.8          55.22
    0.8872              -17.71          28.91          39.18          37.61          1.754         -11.18          94.84           56.5          38.09          125.8          55.29
    0.9227              -17.72           28.9          39.19          37.61          1.754         -11.18          94.53          56.48          38.07          125.7          55.38
    0.9582              -17.72          28.89          39.19           37.6          1.755         -11.19          94.18          56.46          38.04          125.7          55.47
    0.9937              -17.72          28.88           39.2          37.59          1.756         -11.19          93.79          56.43           38.0          125.6          55.57
     1.029              -17.72          28.86          39.21          37.58          1.756          -11.2          93.34           56.4          37.96          125.6          55.69
     1.065              -17.72          28.85          39.21          37.57          1.757          -11.2          92.84          56.36          37.92          125.5          55.83
       1.1              -17.73          28.83          39.22          37.56          1.758         -11.21          92.25          56.32          37.87          125.4          55.98
     1.136              -17.73           28.8          39.23          37.54           1.76         -11.22          91.58          56.28          37.81          125.3          56.16
     1.171              -17.73          28.78          39.24          37.52          1.761         -11.22          90.79          56.23          37.74          125.2          56.37
     1.207              -17.74          28.75          39.26           37.5          1.763         -11.23          89.88          56.16          37.66          125.1          56.61
     1.242              -17.74          28.71          39.28          37.48          1.765         -11.25           88.8          56.09          37.57          124.9           56.9
     1.278              -17.75          28.67           39.3          37.45          1.767         -11.26          87.51           56.0          37.46          124.7          57.24
     1.313              -17.75          28.62          39.32          37.41           1.77         -11.28          85.97           55.9          37.33          124.5          57.65
     1.349              -17.76          28.55          39.35          37.37          1.773          -11.3          84.11          55.77          37.17          124.3          58.14
     1.384              -17.77          28.48          39.38          37.32          1.778         -11.33          81.83          55.62          36.97          124.0          58.74
      1.42              -17.79          28.38          39.43          37.26          1.783         -11.36          79.02          55.43          36.73          123.6          59.49
     1.455               -17.8          28.26          39.48          37.18          1.789          -11.4          75.52           55.2          36.43          123.1          60.42
     1.491              -17.82          28.12          39.55          37.08          1.797         -11.45          71.11           54.9          36.04          122.5          61.59
